<svg xmlns="http://www.w3.org/2000/svg">
  <symbol id="tab" viewBox="0 0 24 24">
    <path d="M3 7.5A2.5 2.5 0 0 1 5.5 5h13A2.5 2.5 0 0 1 21 7.5v9A2.5 2.5 0 0 1 18.5 19h-13A2.5 2.5 0 0 1 3 16.5z" fill="none" stroke="currentColor" stroke-linecap="round" stroke-linejoin="round" stroke-width="1.8"/>
    <path d="M3 8h18" fill="none" stroke="currentColor" stroke-linecap="round" stroke-linejoin="round" stroke-width="1.8"/>
    <path d="M7 6.5h1" fill="none" stroke="currentColor" stroke-linecap="round" stroke-width="1.8"/>
    <path d="M10 6.5h1" fill="none" stroke="currentColor" stroke-linecap="round" stroke-width="1.8"/>
  </symbol>
  <symbol id="monitor" viewBox="0 0 24 24">
    <path d="M12 4v3" fill="none" stroke="currentColor" stroke-linecap="round" stroke-linejoin="round" stroke-width="1.8"/>
    <path d="m8.5 7.5 3.5-3 3.5 3" fill="none" stroke="currentColor" stroke-linecap="round" stroke-linejoin="round" stroke-width="1.8"/>
    <path d="M5 14a7 7 0 1 1 14 0" fill="none" stroke="currentColor" stroke-linecap="round" stroke-linejoin="round" stroke-width="1.8"/>
    <path d="M7.75 14a4.25 4.25 0 0 1 8.5 0" fill="none" stroke="currentColor" stroke-linecap="round" stroke-linejoin="round" stroke-width="1.8"/>
    <circle cx="12" cy="14" r="1.4" fill="currentColor"/>
  </symbol>
  <symbol id="shield-on" viewBox="0 0 24 24">
    <path d="m12 3-7 3v5c0 4.5 2.8 7.7 7 10 4.2-2.3 7-5.5 7-10V6z" fill="none" stroke="currentColor" stroke-linecap="round" stroke-linejoin="round" stroke-width="1.8"/>
    <path d="m9.5 12 1.7 1.7 3.3-3.4" fill="none" stroke="currentColor" stroke-linecap="round" stroke-linejoin="round" stroke-width="1.8"/>
  </symbol>
  <symbol id="shield-off" viewBox="0 0 24 24">
    <path d="m12 3-7 3v5c0 4.5 2.8 7.7 7 10 4.2-2.3 7-5.5 7-10V6z" fill="none" stroke="currentColor" stroke-linecap="round" stroke-linejoin="round" stroke-width="1.8"/>
    <path d="m9 9 6 6" fill="none" stroke="currentColor" stroke-linecap="round" stroke-linejoin="round" stroke-width="1.8"/>
    <path d="m15 9-6 6" fill="none" stroke="currentColor" stroke-linecap="round" stroke-linejoin="round" stroke-width="1.8"/>
  </symbol>
  <symbol id="siren" viewBox="0 0 24 24">
    <path d="M7.5 12V9.5A4.5 4.5 0 0 1 12 5a4.5 4.5 0 0 1 4.5 4.5V12" fill="none" stroke="currentColor" stroke-linecap="round" stroke-linejoin="round" stroke-width="1.8"/>
    <path d="M6 12h12v3.5A2.5 2.5 0 0 1 15.5 18h-7A2.5 2.5 0 0 1 6 15.5z" fill="none" stroke="currentColor" stroke-linecap="round" stroke-linejoin="round" stroke-width="1.8"/>
    <path d="M10 18v2" fill="none" stroke="currentColor" stroke-linecap="round" stroke-width="1.8"/>
    <path d="M14 18v2" fill="none" stroke="currentColor" stroke-linecap="round" stroke-width="1.8"/>
    <path d="M4.5 7.5 3 9" fill="none" stroke="currentColor" stroke-linecap="round" stroke-width="1.8"/>
    <path d="M19.5 7.5 21 9" fill="none" stroke="currentColor" stroke-linecap="round" stroke-width="1.8"/>
    <path d="M12 3V1.5" fill="none" stroke="currentColor" stroke-linecap="round" stroke-width="1.8"/>
  </symbol>
  <symbol id="stop" viewBox="0 0 24 24">
    <circle cx="12" cy="12" r="8.5" fill="none" stroke="currentColor" stroke-linecap="round" stroke-linejoin="round" stroke-width="1.8"/>
    <rect x="9" y="9" width="6" height="6" rx="1.2" fill="currentColor"/>
  </symbol>
  <symbol id="sliders" viewBox="0 0 24 24">
    <path d="M4 7h7" fill="none" stroke="currentColor" stroke-linecap="round" stroke-width="1.8"/>
    <path d="M13 7h7" fill="none" stroke="currentColor" stroke-linecap="round" stroke-width="1.8"/>
    <circle cx="12" cy="7" r="2" fill="none" stroke="currentColor" stroke-width="1.8"/>
    <path d="M4 12h3" fill="none" stroke="currentColor" stroke-linecap="round" stroke-width="1.8"/>
    <path d="M9 12h11" fill="none" stroke="currentColor" stroke-linecap="round" stroke-width="1.8"/>
    <circle cx="8" cy="12" r="2" fill="none" stroke="currentColor" stroke-width="1.8"/>
    <path d="M4 17h9" fill="none" stroke="currentColor" stroke-linecap="round" stroke-width="1.8"/>
    <path d="M15 17h5" fill="none" stroke="currentColor" stroke-linecap="round" stroke-width="1.8"/>
    <circle cx="14" cy="17" r="2" fill="none" stroke="currentColor" stroke-width="1.8"/>
  </symbol>
  <symbol id="stack" viewBox="0 0 24 24">
    <rect x="6" y="5" width="12" height="10" rx="2" fill="none" stroke="currentColor" stroke-linecap="round" stroke-linejoin="round" stroke-width="1.8"/>
    <path d="M8 17h10a2 2 0 0 0 2-2" fill="none" stroke="currentColor" stroke-linecap="round" stroke-linejoin="round" stroke-width="1.8"/>
    <path d="M6 9H4.8A1.8 1.8 0 0 0 3 10.8v5.4A1.8 1.8 0 0 0 4.8 18H14" fill="none" stroke="currentColor" stroke-linecap="round" stroke-linejoin="round" stroke-width="1.8"/>
  </symbol>
  <symbol id="stack-off" viewBox="0 0 24 24">
    <rect x="6" y="5" width="12" height="10" rx="2" fill="none" stroke="currentColor" stroke-linecap="round" stroke-linejoin="round" stroke-width="1.8"/>
    <path d="M8 17h10a2 2 0 0 0 2-2" fill="none" stroke="currentColor" stroke-linecap="round" stroke-linejoin="round" stroke-width="1.8"/>
    <path d="M6 9H4.8A1.8 1.8 0 0 0 3 10.8v5.4A1.8 1.8 0 0 0 4.8 18H14" fill="none" stroke="currentColor" stroke-linecap="round" stroke-linejoin="round" stroke-width="1.8"/>
    <path d="m9 8 6 6" fill="none" stroke="currentColor" stroke-linecap="round" stroke-linejoin="round" stroke-width="1.8"/>
    <path d="m15 8-6 6" fill="none" stroke="currentColor" stroke-linecap="round" stroke-linejoin="round" stroke-width="1.8"/>
  </symbol>
  <symbol id="bell" viewBox="0 0 24 24">
    <path d="M7 10a5 5 0 0 1 10 0v3.1c0 .9.3 1.8.9 2.5l1 1.2H5.1l1-1.2c.6-.7.9-1.6.9-2.5z" fill="none" stroke="currentColor" stroke-linecap="round" stroke-linejoin="round" stroke-width="1.8"/>
    <path d="M10 18a2.2 2.2 0 0 0 4 0" fill="none" stroke="currentColor" stroke-linecap="round" stroke-linejoin="round" stroke-width="1.8"/>
  </symbol>
  <symbol id="refresh" viewBox="0 0 24 24">
    <path d="M20 6v5h-5" fill="none" stroke="currentColor" stroke-linecap="round" stroke-linejoin="round" stroke-width="1.8"/>
    <path d="M4 18v-5h5" fill="none" stroke="currentColor" stroke-linecap="round" stroke-linejoin="round" stroke-width="1.8"/>
    <path d="M18.2 10A7 7 0 0 0 6.7 7.4L5 9" fill="none" stroke="currentColor" stroke-linecap="round" stroke-linejoin="round" stroke-width="1.8"/>
    <path d="M5.8 14A7 7 0 0 0 17.3 16.6L19 15" fill="none" stroke="currentColor" stroke-linecap="round" stroke-linejoin="round" stroke-width="1.8"/>
  </symbol>
  <symbol id="clock" viewBox="0 0 24 24">
    <circle cx="12" cy="12" r="8.5" fill="none" stroke="currentColor" stroke-linecap="round" stroke-linejoin="round" stroke-width="1.8"/>
    <path d="M12 8v4l2.8 2" fill="none" stroke="currentColor" stroke-linecap="round" stroke-linejoin="round" stroke-width="1.8"/>
  </symbol>
  <symbol id="spark" viewBox="0 0 24 24">
    <path d="m12 3-1.9 4.8L5 9.7l4.3 2.1L11 17l2-5.2 4.3-2.1-5.1-1.9z" fill="none" stroke="currentColor" stroke-linecap="round" stroke-linejoin="round" stroke-width="1.8"/>
    <path d="m18.5 4 .4 1.1L20 5.5l-1.1.4-.4 1.1-.4-1.1L17 5.5l1.1-.4z" fill="none" stroke="currentColor" stroke-linecap="round" stroke-linejoin="round" stroke-width="1.6"/>
  </symbol>
  <symbol id="focus" viewBox="0 0 24 24">
    <circle cx="12" cy="12" r="3.2" fill="none" stroke="currentColor" stroke-width="1.8"/>
    <path d="M12 4V7" fill="none" stroke="currentColor" stroke-linecap="round" stroke-width="1.8"/>
    <path d="M12 17v3" fill="none" stroke="currentColor" stroke-linecap="round" stroke-width="1.8"/>
    <path d="M4 12h3" fill="none" stroke="currentColor" stroke-linecap="round" stroke-width="1.8"/>
    <path d="M17 12h3" fill="none" stroke="currentColor" stroke-linecap="round" stroke-width="1.8"/>
  </symbol>
  <symbol id="audio" viewBox="0 0 24 24">
    <path d="M5 14h3l4 3V7L8 10H5z" fill="none" stroke="currentColor" stroke-linecap="round" stroke-linejoin="round" stroke-width="1.8"/>
    <path d="M15 10.2a3.5 3.5 0 0 1 0 5.6" fill="none" stroke="currentColor" stroke-linecap="round" stroke-width="1.8"/>
    <path d="M17.7 8a6.4 6.4 0 0 1 0 10" fill="none" stroke="currentColor" stroke-linecap="round" stroke-width="1.8"/>
  </symbol>
  <symbol id="click" viewBox="0 0 24 24">
    <path d="m7 4 8 10-4 .8 2 5-2.2.9-2-5L6 18z" fill="none" stroke="currentColor" stroke-linecap="round" stroke-linejoin="round" stroke-width="1.8"/>
    <path d="M14.5 4.5v2" fill="none" stroke="currentColor" stroke-linecap="round" stroke-width="1.8"/>
    <path d="m18 6-1.4 1.4" fill="none" stroke="currentColor" stroke-linecap="round" stroke-width="1.8"/>
  </symbol>
  <symbol id="scroll" viewBox="0 0 24 24">
    <rect x="7" y="4" width="10" height="16" rx="3" fill="none" stroke="currentColor" stroke-linecap="round" stroke-linejoin="round" stroke-width="1.8"/>
    <path d="m12 8-2 2" fill="none" stroke="currentColor" stroke-linecap="round" stroke-linejoin="round" stroke-width="1.8"/>
    <path d="m12 8 2 2" fill="none" stroke="currentColor" stroke-linecap="round" stroke-linejoin="round" stroke-width="1.8"/>
    <path d="m12 16-2-2" fill="none" stroke="currentColor" stroke-linecap="round" stroke-linejoin="round" stroke-width="1.8"/>
    <path d="m12 16 2-2" fill="none" stroke="currentColor" stroke-linecap="round" stroke-linejoin="round" stroke-width="1.8"/>
  </symbol>
  <symbol id="keyboard" viewBox="0 0 24 24">
    <rect x="3.5" y="6" width="17" height="12" rx="2.5" fill="none" stroke="currentColor" stroke-linecap="round" stroke-linejoin="round" stroke-width="1.8"/>
    <path d="M7 10h1" fill="none" stroke="currentColor" stroke-linecap="round" stroke-width="1.8"/>
    <path d="M10 10h1" fill="none" stroke="currentColor" stroke-linecap="round" stroke-width="1.8"/>
    <path d="M13 10h1" fill="none" stroke="currentColor" stroke-linecap="round" stroke-width="1.8"/>
    <path d="M16 10h1" fill="none" stroke="currentColor" stroke-linecap="round" stroke-width="1.8"/>
    <path d="M7 13h1" fill="none" stroke="currentColor" stroke-linecap="round" stroke-width="1.8"/>
    <path d="M10 13h1" fill="none" stroke="currentColor" stroke-linecap="round" stroke-width="1.8"/>
    <path d="M13 13h4" fill="none" stroke="currentColor" stroke-linecap="round" stroke-width="1.8"/>
  </symbol>
  <symbol id="eye" viewBox="0 0 24 24">
    <path d="M2.5 12s3.6-5.5 9.5-5.5S21.5 12 21.5 12s-3.6 5.5-9.5 5.5S2.5 12 2.5 12z" fill="none" stroke="currentColor" stroke-linecap="round" stroke-linejoin="round" stroke-width="1.8"/>
    <circle cx="12" cy="12" r="2.8" fill="none" stroke="currentColor" stroke-width="1.8"/>
  </symbol>
  <symbol id="dom" viewBox="0 0 24 24">
    <circle cx="6" cy="6" r="2" fill="none" stroke="currentColor" stroke-width="1.8"/>
    <circle cx="18" cy="6" r="2" fill="none" stroke="currentColor" stroke-width="1.8"/>
    <circle cx="12" cy="12" r="2" fill="none" stroke="currentColor" stroke-width="1.8"/>
    <circle cx="8" cy="18" r="2" fill="none" stroke="currentColor" stroke-width="1.8"/>
    <circle cx="16" cy="18" r="2" fill="none" stroke="currentColor" stroke-width="1.8"/>
    <path d="M7.5 7.5 10.5 10.5" fill="none" stroke="currentColor" stroke-linecap="round" stroke-width="1.8"/>
    <path d="m16.5 7.5-3 3" fill="none" stroke="currentColor" stroke-linecap="round" stroke-width="1.8"/>
    <path d="m10.5 13.5-1.5 2.5" fill="none" stroke="currentColor" stroke-linecap="round" stroke-width="1.8"/>
    <path d="m13.5 13.5 1.5 2.5" fill="none" stroke="currentColor" stroke-linecap="round" stroke-width="1.8"/>
  </symbol>
  <symbol id="close-tab" viewBox="0 0 24 24">
    <path d="M3 7.5A2.5 2.5 0 0 1 5.5 5h13A2.5 2.5 0 0 1 21 7.5v9A2.5 2.5 0 0 1 18.5 19h-13A2.5 2.5 0 0 1 3 16.5z" fill="none" stroke="currentColor" stroke-linecap="round" stroke-linejoin="round" stroke-width="1.8"/>
    <path d="M3 8h18" fill="none" stroke="currentColor" stroke-linecap="round" stroke-linejoin="round" stroke-width="1.8"/>
    <path d="m9.2 10.2 5.6 5.6" fill="none" stroke="currentColor" stroke-linecap="round" stroke-linejoin="round" stroke-width="1.8"/>
    <path d="m14.8 10.2-5.6 5.6" fill="none" stroke="currentColor" stroke-linecap="round" stroke-linejoin="round" stroke-width="1.8"/>
  </symbol>
  <symbol id="shortcut" viewBox="0 0 24 24">
    <rect x="4" y="6" width="16" height="12" rx="2.6" fill="none" stroke="currentColor" stroke-linecap="round" stroke-linejoin="round" stroke-width="1.8"/>
    <path d="M8 10h3" fill="none" stroke="currentColor" stroke-linecap="round" stroke-width="1.8"/>
    <path d="M8 14h2" fill="none" stroke="currentColor" stroke-linecap="round" stroke-width="1.8"/>
    <path d="m14 9 3 3-3 3" fill="none" stroke="currentColor" stroke-linecap="round" stroke-linejoin="round" stroke-width="1.8"/>
    <path d="M12.5 12H17" fill="none" stroke="currentColor" stroke-linecap="round" stroke-width="1.8"/>
  </symbol>
  <symbol id="screen-share-off" viewBox="0 0 24 24">
    <rect x="4" y="5" width="16" height="11" rx="2.5" fill="none" stroke="currentColor" stroke-linecap="round" stroke-linejoin="round" stroke-width="1.8"/>
    <path d="M9 19h6" fill="none" stroke="currentColor" stroke-linecap="round" stroke-width="1.8"/>
    <path d="M12 16v3" fill="none" stroke="currentColor" stroke-linecap="round" stroke-width="1.8"/>
    <path d="m8.2 8.8 7.6 3.9" fill="none" stroke="currentColor" stroke-linecap="round" stroke-linejoin="round" stroke-width="1.8"/>
    <path d="m15.8 8.8-7.6 3.9" fill="none" stroke="currentColor" stroke-linecap="round" stroke-linejoin="round" stroke-width="1.8"/>
    <path d="m6.8 4.8 10.4 14.4" fill="none" stroke="currentColor" stroke-linecap="round" stroke-linejoin="round" stroke-width="1.8"/>
  </symbol>
  <symbol id="tabs-cluster" viewBox="0 0 24 24">
    <rect x="4" y="8.5" width="10" height="7.5" rx="2" fill="none" stroke="currentColor" stroke-linecap="round" stroke-linejoin="round" stroke-width="1.8"/>
    <path d="M9 6h8a3 3 0 0 1 3 3v5.5a3 3 0 0 1-3 3h-7.5" fill="none" stroke="currentColor" stroke-linecap="round" stroke-linejoin="round" stroke-width="1.8"/>
    <path d="M4 12h10" fill="none" stroke="currentColor" stroke-linecap="round" stroke-width="1.8"/>
    <path d="M11 9h4.5" fill="none" stroke="currentColor" stroke-linecap="round" stroke-width="1.8"/>
  </symbol>
  <symbol id="rule-list" viewBox="0 0 24 24">
    <path d="M10 7h8.5" fill="none" stroke="currentColor" stroke-linecap="round" stroke-width="1.8"/>
    <path d="M10 12h8.5" fill="none" stroke="currentColor" stroke-linecap="round" stroke-width="1.8"/>
    <path d="M10 17h6.5" fill="none" stroke="currentColor" stroke-linecap="round" stroke-width="1.8"/>
    <circle cx="6.5" cy="7" r="1.4" fill="currentColor"/>
    <circle cx="6.5" cy="12" r="1.4" fill="currentColor"/>
    <circle cx="6.5" cy="17" r="1.4" fill="currentColor"/>
  </symbol>
  <symbol id="workflow" viewBox="0 0 24 24">
    <circle cx="7" cy="6.5" r="2" fill="none" stroke="currentColor" stroke-width="1.8"/>
    <circle cx="17" cy="12" r="2" fill="none" stroke="currentColor" stroke-width="1.8"/>
    <circle cx="7" cy="17.5" r="2" fill="none" stroke="currentColor" stroke-width="1.8"/>
    <path d="m8.8 7.5 5.4 3" fill="none" stroke="currentColor" stroke-linecap="round" stroke-linejoin="round" stroke-width="1.8"/>
    <path d="m8.8 16.5 5.4-3" fill="none" stroke="currentColor" stroke-linecap="round" stroke-linejoin="round" stroke-width="1.8"/>
    <path d="M14.8 12H20" fill="none" stroke="currentColor" stroke-linecap="round" stroke-width="1.8"/>
  </symbol>
  <symbol id="hourglass" viewBox="0 0 24 24">
    <path d="M7 4h10" fill="none" stroke="currentColor" stroke-linecap="round" stroke-width="1.8"/>
    <path d="M7 20h10" fill="none" stroke="currentColor" stroke-linecap="round" stroke-width="1.8"/>
    <path d="M8 4c0 3 1.6 4.7 4 6-2.4 1.3-4 3-4 6" fill="none" stroke="currentColor" stroke-linecap="round" stroke-linejoin="round" stroke-width="1.8"/>
    <path d="M16 4c0 3-1.6 4.7-4 6 2.4 1.3 4 3 4 6" fill="none" stroke="currentColor" stroke-linecap="round" stroke-linejoin="round" stroke-width="1.8"/>
    <path d="m9.5 8.5 2.5 2 2.5-2" fill="none" stroke="currentColor" stroke-linecap="round" stroke-linejoin="round" stroke-width="1.8"/>
    <path d="m9.5 15.5 2.5-2 2.5 2" fill="none" stroke="currentColor" stroke-linecap="round" stroke-linejoin="round" stroke-width="1.8"/>
  </symbol>
</svg>
